<?xml version="1.0" encoding="utf-8"?>
<!-- Generator: Adobe Illustrator 19.1.0, SVG Export Plug-In . SVG Version: 6.00 Build 0)  -->
<svg version="1.1" id="Layer_1" xmlns="http://www.w3.org/2000/svg" xmlns:xlink="http://www.w3.org/1999/xlink" x="0px" y="0px"
	 viewBox="0 0 960 560" style="enable-background:new 0 0 960 560;" xml:space="preserve">
<style type="text/css">
	.st0{fill:#B1955F;}
</style>
<path class="st0" d="M616.6,211.6c-9.3,0-17.6,4.8-22.4,12v-5.8c0-14.8-12.1-26.9-26.9-26.9c-9.3,0-17.6,4.8-22.4,12v-5.8
	c0-14.8-12.1-26.9-26.9-26.9c-9.3,0-17.6,4.8-22.4,12V103c0-14.8-12.1-26.9-26.9-26.9s-26.9,12.1-26.9,26.9v197
	c-5-0.5-17.6-2.7-27.5-12.6c-1-1-26.1-25.2-27.2-26.2c-5.2-5.2-12.6-8.2-20.1-8.2c-7.2,0-13.8,2.7-18.6,7.5c-5,5-7.7,12-7.5,19.4
	c0.2,7.2,3.2,14.3,8.2,19.3c11.8,12.1,29.6,30.5,30.5,31.5c7.6,9.1,16.7,17.7,25.6,26.1c17.4,16.4,35.4,33.4,41.2,53.7
	c8.7,30.6,4.5,70.4,4.4,70.8l-0.3,2.5h152.8l-0.2-2.4c0-0.6-4.2-57.8,13.1-83.7c18-27,26.9-87.9,27.3-90.8v-68.4
	C643.5,223.7,631.5,211.6,616.6,211.6z"/>
</svg>
